NotoSansSyriac-Black.ufo
<glyph name="exclam" format="2">
  <advance width="283"/>
  <unicode hex="0021"/>
  <outline>
    <contour>
      <point x="63" y="246" type="line"/>
      <point x="221" y="246" type="line"/>
      <point x="245" y="697" type="line"/>
      <point x="39" y="697" type="line"/>
    </contour>
    <contour>
      <point x="140" y="0" type="curve" smooth="yes"/>
      <point x="187" y="0"/>
      <point x="234" y="24"/>
      <point x="234" y="84" type="curve" smooth="yes"/>
      <point x="234" y="146"/>
      <point x="187" y="169"/>
      <point x="140" y="169" type="curve" smooth="yes"/>
      <point x="92" y="169"/>
      <point x="47" y="146"/>
      <point x="47" y="84" type="curve" smooth="yes"/>
      <point x="47" y="24"/>
      <point x="92" y="0"/>
    </contour>
  </outline>
</glyph>
<glyph name="parenleft" format="2">
  <advance width="447"/>
  <unicode hex="0028"/>
  <outline>
    <contour>
      <point x="213" y="-154" type="curve"/>
      <point x="367" y="-154" type="line"/>
      <point x="280" y="-35"/>
      <point x="243" y="127"/>
      <point x="243" y="278" type="curve" smooth="yes"/>
      <point x="243" y="432"/>
      <point x="280" y="594"/>
      <point x="368" y="716" type="curve"/>
      <point x="213" y="716" type="line"/>
      <point x="114" y="598"/>
      <point x="79" y="436"/>
      <point x="79" y="277" type="curve" smooth="yes"/>
      <point x="79" y="120"/>
      <point x="114" y="-40"/>
    </contour>
  </outline>
</glyph>
<glyph name="parenright" format="2">
  <advance width="339"/>
  <unicode hex="0029"/>
  <outline>
    <contour>
      <point x="31" y="-154" type="curve"/>
      <point x="186" y="-154" type="line"/>
      <point x="284" y="-40"/>
      <point x="319" y="120"/>
      <point x="319" y="277" type="curve" smooth="yes"/>
      <point x="319" y="436"/>
      <point x="284" y="598"/>
      <point x="186" y="716" type="curve"/>
      <point x="30" y="716" type="line"/>
      <point x="118" y="594"/>
      <point x="155" y="432"/>
      <point x="155" y="278" type="curve" smooth="yes"/>
      <point x="155" y="127"/>
      <point x="118" y="-35"/>
    </contour>
  </outline>
</glyph>
<glyph name="plus" format="2">
  <advance width="578"/>
  <unicode hex="002B"/>
  <outline>
    <contour>
      <point x="226" y="74" type="line"/>
      <point x="351" y="74" type="line"/>
      <point x="351" y="241" type="line"/>
      <point x="524" y="241" type="line"/>
      <point x="524" y="366" type="line"/>
      <point x="351" y="366" type="line"/>
      <point x="351" y="536" type="line"/>
      <point x="226" y="536" type="line"/>
      <point x="226" y="366" type="line"/>
      <point x="53" y="366" type="line"/>
      <point x="53" y="241" type="line"/>
      <point x="226" y="241" type="line"/>
    </contour>
  </outline>
</glyph>
<glyph name="slash" format="2">
  <advance width="543"/>
  <unicode hex="002F"/>
  <outline>
    <contour>
      <point x="34" y="-123" type="line"/>
      <point x="203" y="-123" type="line"/>
      <point x="510" y="724" type="line"/>
      <point x="341" y="724" type="line"/>
    </contour>
  </outline>
</glyph>
<glyph name="colon" format="2">
  <advance width="343"/>
  <unicode hex="003A"/>
  <outline>
    <contour>
      <point x="78" y="372" type="curve" smooth="yes"/>
      <point x="78" y="312"/>
      <point x="123" y="288"/>
      <point x="171" y="288" type="curve" smooth="yes"/>
      <point x="218" y="288"/>
      <point x="265" y="312"/>
      <point x="265" y="372" type="curve" smooth="yes"/>
      <point x="265" y="434"/>
      <point x="218" y="457"/>
      <point x="171" y="457" type="curve" smooth="yes"/>
      <point x="123" y="457"/>
      <point x="78" y="434"/>
    </contour>
    <contour>
      <point x="78" y="84" type="curve" smooth="yes"/>
      <point x="78" y="24"/>
      <point x="123" y="0"/>
      <point x="171" y="0" type="curve" smooth="yes"/>
      <point x="218" y="0"/>
      <point x="265" y="24"/>
      <point x="265" y="84" type="curve" smooth="yes"/>
      <point x="265" y="146"/>
      <point x="218" y="169"/>
      <point x="171" y="169" type="curve" smooth="yes"/>
      <point x="123" y="169"/>
      <point x="78" y="146"/>
    </contour>
  </outline>
</glyph>
<glyph name="equal" format="2">
  <advance width="594"/>
  <unicode hex="003D"/>
  <outline>
    <contour>
      <point x="61" y="346" type="line"/>
      <point x="533" y="346" type="line"/>
      <point x="533" y="470" type="line"/>
      <point x="61" y="470" type="line"/>
    </contour>
    <contour>
      <point x="61" y="134" type="line"/>
      <point x="533" y="134" type="line"/>
      <point x="533" y="259" type="line"/>
      <point x="61" y="259" type="line"/>
    </contour>
  </outline>
</glyph>
<glyph name="bracketleft" format="2">
  <advance width="288"/>
  <unicode hex="005B"/>
  <outline>
    <contour>
      <point x="20" y="-164" type="line"/>
      <point x="258" y="-164" type="line"/>
      <point x="258" y="-43" type="line"/>
      <point x="171" y="-43" type="line"/>
      <point x="171" y="595" type="line"/>
      <point x="258" y="595" type="line"/>
      <point x="258" y="716" type="line"/>
      <point x="20" y="716" type="line"/>
    </contour>
  </outline>
</glyph>
<glyph name="uni0304" format="2">
  <unicode hex="0304"/>
  <outline>
    <contour>
      <point x="-133" y="560" type="line"/>
      <point x="133" y="560" type="line"/>
      <point x="133" y="620" type="line"/>
      <point x="-133" y="620" type="line"/>
    </contour>
  </outline>
</glyph>
<glyph name="uni0308" format="2">
  <unicode hex="0308"/>
  <outline>
    <contour>
      <point x="-110" y="547" type="curve" smooth="yes"/>
      <point x="-68" y="547"/>
      <point x="-25" y="569"/>
      <point x="-25" y="623" type="curve" smooth="yes"/>
      <point x="-25" y="679"/>
      <point x="-68" y="700"/>
      <point x="-110" y="700" type="curve" smooth="yes"/>
      <point x="-153" y="700"/>
      <point x="-194" y="679"/>
      <point x="-194" y="623" type="curve" smooth="yes"/>
      <point x="-194" y="569"/>
      <point x="-153" y="547"/>
    </contour>
    <contour>
      <point x="106" y="547" type="curve" smooth="yes"/>
      <point x="148" y="547"/>
      <point x="191" y="569"/>
      <point x="191" y="623" type="curve" smooth="yes"/>
      <point x="191" y="679"/>
      <point x="148" y="700"/>
      <point x="106" y="700" type="curve" smooth="yes"/>
      <point x="63" y="700"/>
      <point x="22" y="679"/>
      <point x="22" y="623" type="curve" smooth="yes"/>
      <point x="22" y="569"/>
      <point x="63" y="547"/>
    </contour>
  </outline>
</glyph>
<glyph name="uni0320" format="2">
  <unicode hex="0320"/>
  <outline>
    <contour>
      <point x="-133" y="-80" type="line"/>
      <point x="133" y="-80" type="line"/>
      <point x="133" y="-20" type="line"/>
      <point x="-133" y="-20" type="line"/>
    </contour>
  </outline>
</glyph>
<glyph name="uni032E" format="2">
  <unicode hex="032E"/>
  <outline>
    <contour>
      <point x="131" y="39" type="curve"/>
      <point x="74" y="39" type="line"/>
      <point x="68" y="8"/>
      <point x="40" y="-15"/>
      <point x="-1" y="-15" type="curve" smooth="yes"/>
      <point x="-47" y="-15"/>
      <point x="-65" y="12"/>
      <point x="-71" y="39" type="curve"/>
      <point x="-129" y="39" type="line"/>
      <point x="-125" y="-42"/>
      <point x="-76" y="-78"/>
      <point x="-3" y="-78" type="curve" smooth="yes"/>
      <point x="67" y="-78"/>
      <point x="125" y="-34"/>
    </contour>
  </outline>
</glyph>
<glyph name="uni064D" format="2">
  <unicode hex="064D"/>
  <outline>
    <contour>
      <point x="100" y="14" type="line"/>
      <point x="-103" y="-62" type="line"/>
      <point x="-101" y="-100" type="line"/>
      <point x="101" y="-24" type="line"/>
    </contour>
    <contour>
      <point x="106" y="-69" type="line"/>
      <point x="-97" y="-145" type="line"/>
      <point x="-95" y="-183" type="line"/>
      <point x="107" y="-107" type="line"/>
    </contour>
  </outline>
</glyph>
<glyph name="uni064E" format="2">
  <unicode hex="064E"/>
  <outline>
    <contour>
      <point x="101" y="645" type="line"/>
      <point x="-101" y="569" type="line"/>
      <point x="-100" y="531" type="line"/>
      <point x="103" y="607" type="line"/>
    </contour>
  </outline>
</glyph>
<glyph name="uni0650" format="2">
  <unicode hex="0650"/>
  <outline>
    <contour>
      <point x="100" y="14" type="line"/>
      <point x="-103" y="-62" type="line"/>
      <point x="-101" y="-100" type="line"/>
      <point x="101" y="-24" type="line"/>
    </contour>
  </outline>
</glyph>
<glyph name="uni0660" format="2">
  <advance width="586"/>
  <unicode hex="0660"/>
  <outline>
    <contour>
      <point x="298" y="158" type="curve" smooth="yes"/>
      <point x="361" y="158"/>
      <point x="417" y="207"/>
      <point x="417" y="281" type="curve" smooth="yes"/>
      <point x="417" y="355"/>
      <point x="349" y="400"/>
      <point x="292" y="400" type="curve" smooth="yes"/>
      <point x="238" y="400"/>
      <point x="170" y="355"/>
      <point x="170" y="281" type="curve" smooth="yes"/>
      <point x="170" y="201"/>
      <point x="234" y="158"/>
    </contour>
  </outline>
</glyph>
<glyph name="uni0670" format="2">
  <unicode hex="0670"/>
  <outline>
    <contour>
      <point x="25" y="734" type="line"/>
      <point x="-25" y="734" type="line"/>
      <point x="-25" y="536" type="line"/>
      <point x="25" y="536" type="line"/>
    </contour>
  </outline>
</glyph>
<glyph name="uni070B" format="2">
  <advance width="983"/>
  <unicode hex="070B"/>
  <outline>
    <contour>
      <point x="110" y="617" type="line"/>
      <point x="873" y="617" type="line"/>
      <point x="873" y="743" type="line"/>
      <point x="110" y="743" type="line"/>
    </contour>
    <contour>
      <point x="491" y="364" type="curve" smooth="yes"/>
      <point x="538" y="364"/>
      <point x="585" y="388"/>
      <point x="585" y="448" type="curve" smooth="yes"/>
      <point x="585" y="510"/>
      <point x="538" y="533"/>
      <point x="491" y="533" type="curve" smooth="yes"/>
      <point x="443" y="533"/>
      <point x="398" y="510"/>
      <point x="398" y="448" type="curve" smooth="yes"/>
      <point x="398" y="388"/>
      <point x="443" y="364"/>
    </contour>
  </outline>
</glyph>
<glyph name="uni0716" format="2">
  <advance width="601"/>
  <unicode hex="0716"/>
  <outline>
    <contour>
      <point x="39" y="337" type="line"/>
      <point x="243" y="334" type="line" smooth="yes"/>
      <point x="323" y="333"/>
      <point x="340" y="326"/>
      <point x="349" y="246" type="curve" smooth="yes"/>
      <point x="379" y="-16" type="line"/>
      <point x="539" y="-16" type="line"/>
      <point x="489" y="350" type="line" smooth="yes"/>
      <point x="478" y="433"/>
      <point x="420" y="502"/>
      <point x="302" y="502" type="curve" smooth="yes"/>
      <point x="39" y="502" type="line"/>
    </contour>
  </outline>
</glyph>
<glyph name="uni0719" format="2">
  <advance width="351"/>
  <unicode hex="0719"/>
  <outline>
    <contour>
      <point x="129" y="-37" type="curve"/>
      <point x="293" y="-37" type="line"/>
      <point x="274" y="103"/>
      <point x="233" y="400"/>
      <point x="218" y="498" type="curve"/>
      <point x="51" y="476" type="line"/>
      <point x="69" y="377"/>
      <point x="107" y="121"/>
    </contour>
  </outline>
</glyph>
<glyph name="uni073A" format="2">
  <unicode hex="073A"/>
  <outline>
    <contour>
      <point x="-54" y="531" type="line"/>
      <point x="111" y="674" type="line"/>
      <point x="86" y="700" type="line"/>
      <point x="19" y="643" type="line"/>
      <point x="-15" y="681" type="line"/>
      <point x="53" y="741" type="line"/>
      <point x="27" y="768" type="line"/>
      <point x="-138" y="625" type="line"/>
      <point x="-112" y="598" type="line"/>
      <point x="-45" y="656" type="line"/>
      <point x="-10" y="618" type="line"/>
      <point x="-79" y="558" type="line"/>
    </contour>
  </outline>
</glyph>
<glyph name="uni0740" format="2">
  <unicode hex="0740"/>
  <outline>
    <contour>
      <point x="-451" y="249" type="curve" smooth="yes"/>
      <point x="-413" y="249"/>
      <point x="-368" y="272"/>
      <point x="-368" y="331" type="curve" smooth="yes"/>
      <point x="-368" y="392"/>
      <point x="-413" y="414"/>
      <point x="-451" y="414" type="curve" smooth="yes"/>
      <point x="-490" y="414"/>
      <point x="-534" y="392"/>
      <point x="-534" y="331" type="curve" smooth="yes"/>
      <point x="-534" y="272"/>
      <point x="-491" y="249"/>
    </contour>
  </outline>
</glyph>
<glyph name="uni0741" format="2">
  <unicode hex="0741"/>
  <outline>
    <contour>
      <point x="-49" y="606" type="curve" smooth="yes"/>
      <point x="-49" y="569"/>
      <point x="-19" y="553"/>
      <point x="10" y="553" type="curve" smooth="yes"/>
      <point x="40" y="553"/>
      <point x="70" y="569"/>
      <point x="70" y="606" type="curve" smooth="yes"/>
      <point x="70" y="646"/>
      <point x="40" y="660"/>
      <point x="10" y="660" type="curve" smooth="yes"/>
      <point x="-19" y="660"/>
      <point x="-49" y="646"/>
    </contour>
  </outline>
</glyph>
<glyph name="uni0743" format="2">
  <unicode hex="0743"/>
  <outline>
    <contour>
      <point x="0" y="542" type="curve" smooth="yes"/>
      <point x="35" y="542"/>
      <point x="70" y="560"/>
      <point x="70" y="604" type="curve" smooth="yes"/>
      <point x="70" y="650"/>
      <point x="35" y="667"/>
      <point x="0" y="667" type="curve" smooth="yes"/>
      <point x="-35" y="667"/>
      <point x="-69" y="650"/>
      <point x="-69" y="604" type="curve" smooth="yes"/>
      <point x="-69" y="560"/>
      <point x="-35" y="542"/>
    </contour>
    <contour>
      <point x="0" y="702" type="curve" smooth="yes"/>
      <point x="35" y="702"/>
      <point x="70" y="720"/>
      <point x="70" y="764" type="curve" smooth="yes"/>
      <point x="70" y="810"/>
      <point x="35" y="827"/>
      <point x="0" y="827" type="curve" smooth="yes"/>
      <point x="-35" y="827"/>
      <point x="-69" y="810"/>
      <point x="-69" y="764" type="curve" smooth="yes"/>
      <point x="-69" y="720"/>
      <point x="-35" y="702"/>
    </contour>
  </outline>
</glyph>
<glyph name="uni0747" format="2">
  <unicode hex="0747"/>
  <outline>
    <contour>
      <point x="63" y="720" type="line"/>
      <point x="-124" y="565" type="line"/>
      <point x="-84" y="524" type="line"/>
      <point x="102" y="679" type="line"/>
    </contour>
  </outline>
</glyph>
<glyph name="uni074D" format="2">
  <advance width="709"/>
  <unicode hex="074D"/>
  <outline>
    <contour>
      <point x="256" y="-381" type="curve"/>
      <point x="418" y="-381" type="line"/>
      <point x="486" y="-279"/>
      <point x="544" y="-154"/>
      <point x="585" y="-26" type="curve" smooth="yes"/>
      <point x="622" y="89"/>
      <point x="646" y="207"/>
      <point x="653" y="313" type="curve"/>
      <point x="473" y="313" type="line"/>
      <point x="468" y="228"/>
      <point x="450" y="126"/>
      <point x="437" y="67" type="curve" smooth="yes"/>
      <point x="421" y="-5"/>
      <point x="395" y="-99"/>
      <point x="359" y="-182" type="curve"/>
      <point x="307" y="-13"/>
      <point x="281" y="117"/>
      <point x="251" y="313" type="curve"/>
      <point x="56" y="313" type="line"/>
      <point x="81" y="65"/>
      <point x="190" y="-272"/>
    </contour>
  </outline>
</glyph>
<glyph name="uni200F" format="2">
  <unicode hex="200F"/>
  <outline>
    <contour>
      <point x="-16" y="0" type="line"/>
      <point x="15" y="0" type="line"/>
      <point x="15" y="583" type="line"/>
      <point x="-136" y="583" type="line"/>
      <point x="-75" y="640" type="line"/>
      <point x="-96" y="662" type="line"/>
      <point x="-195" y="566" type="line"/>
      <point x="-96" y="469" type="line"/>
      <point x="-75" y="491" type="line"/>
      <point x="-136" y="551" type="line"/>
      <point x="-16" y="551" type="line"/>
    </contour>
  </outline>
</glyph>
<glyph name="fraction" format="2">
  <advance width="543"/>
  <unicode hex="2044"/>
  <outline>
    <contour>
      <point x="66" y="-40" type="line"/>
      <point x="235" y="-40" type="line"/>
      <point x="493" y="682" type="line"/>
      <point x="324" y="682" type="line"/>
    </contour>
  </outline>
</glyph>
<glyph name="minus" format="2">
  <advance width="578"/>
  <unicode hex="2212"/>
  <outline>
    <contour>
      <point x="524" y="241" type="line"/>
      <point x="524" y="366" type="line"/>
      <point x="53" y="366" type="line"/>
      <point x="53" y="241" type="line"/>
    </contour>
  </outline>
</glyph>
<glyph name="SAM12out.SYRN" format="2">
  <outline>
    <contour>
      <point x="-20" y="865" type="line"/>
      <point x="665" y="865" type="line"/>
      <point x="665" y="920" type="line"/>
      <point x="-20" y="920" type="line"/>
    </contour>
  </outline>
</glyph>
<glyph name="SAM12out" format="2">
  <outline>
    <contour>
      <point x="655" y="865" type="line"/>
      <point x="655" y="900" type="line"/>
      <point x="-20" y="900" type="line"/>
      <point x="-20" y="865" type="line"/>
    </contour>
  </outline>
</glyph>
<glyph name="SAM12xout.SYRJ" format="2">
  <outline>
    <contour>
      <point x="59" y="823" type="line"/>
      <point x="59" y="789" type="line"/>
      <point x="645" y="789" type="line"/>
      <point x="645" y="823" type="line"/>
    </contour>
  </outline>
</glyph>
<glyph name="SAM12xout.SYRN" format="2">
  <outline>
    <contour>
      <point x="59" y="865" type="line"/>
      <point x="665" y="865" type="line"/>
      <point x="665" y="920" type="line"/>
      <point x="59" y="920" type="line"/>
    </contour>
  </outline>
</glyph>
<glyph name="SAM12xout" format="2">
  <outline>
    <contour>
      <point x="655" y="865" type="line"/>
      <point x="655" y="900" type="line"/>
      <point x="59" y="900" type="line"/>
      <point x="59" y="865" type="line"/>
    </contour>
  </outline>
</glyph>
<glyph name="SAM18out.SYRJ" format="2">
  <outline>
    <contour>
      <point x="-20" y="823" type="line"/>
      <point x="-20" y="789" type="line"/>
      <point x="938" y="789" type="line"/>
      <point x="938" y="823" type="line"/>
    </contour>
  </outline>
</glyph>
<glyph name="SAM18out" format="2">
  <outline>
    <contour>
      <point x="1022" y="865" type="line"/>
      <point x="1022" y="900" type="line"/>
      <point x="-20" y="900" type="line"/>
      <point x="-20" y="865" type="line"/>
    </contour>
  </outline>
</glyph>
<glyph name="SAM18xout.SYRN" format="2">
  <outline>
    <contour>
      <point x="59" y="865" type="line"/>
      <point x="1032" y="865" type="line"/>
      <point x="1032" y="920" type="line"/>
      <point x="59" y="920" type="line"/>
    </contour>
  </outline>
</glyph>
<glyph name="SAM18xout" format="2">
  <outline>
    <contour>
      <point x="1022" y="865" type="line"/>
      <point x="1022" y="900" type="line"/>
      <point x="59" y="900" type="line"/>
      <point x="59" y="865" type="line"/>
    </contour>
  </outline>
</glyph>
<glyph name="SAM4in.SYRJ" format="2">
  <outline>
    <contour>
      <point x="-295" y="823" type="line"/>
      <point x="-295" y="789" type="line"/>
      <point x="20" y="789" type="line"/>
      <point x="20" y="823" type="line"/>
    </contour>
  </outline>
</glyph>
<glyph name="SAM4in.SYRN" format="2">
  <outline>
    <contour>
      <point x="-275" y="865" type="line"/>
      <point x="20" y="865" type="line"/>
      <point x="20" y="920" type="line"/>
      <point x="-275" y="920" type="line"/>
    </contour>
  </outline>
</glyph>
<glyph name="SAM4in" format="2">
  <outline>
    <contour>
      <point x="20" y="865" type="line"/>
      <point x="20" y="900" type="line"/>
      <point x="-265" y="900" type="line"/>
      <point x="-265" y="865" type="line"/>
    </contour>
  </outline>
</glyph>
<glyph name="SAM4xin.SYRJ" format="2">
  <outline>
    <contour>
      <point x="-295" y="823" type="line"/>
      <point x="-295" y="789" type="line"/>
      <point x="-68" y="789" type="line"/>
      <point x="-68" y="823" type="line"/>
    </contour>
  </outline>
</glyph>
<glyph name="SAM4xin.SYRN" format="2">
  <outline>
    <contour>
      <point x="-275" y="865" type="line"/>
      <point x="-68" y="865" type="line"/>
      <point x="-68" y="920" type="line"/>
      <point x="-275" y="920" type="line"/>
    </contour>
  </outline>
</glyph>
<glyph name="SAM4xin" format="2">
  <outline>
    <contour>
      <point x="-68" y="865" type="line"/>
      <point x="-68" y="900" type="line"/>
      <point x="-265" y="900" type="line"/>
      <point x="-265" y="865" type="line"/>
    </contour>
  </outline>
</glyph>
<glyph name="SAM4xout.SYRN" format="2">
  <outline>
    <contour>
      <point x="59" y="865" type="line"/>
      <point x="275" y="865" type="line"/>
      <point x="275" y="920" type="line"/>
      <point x="59" y="920" type="line"/>
    </contour>
  </outline>
</glyph>
<glyph name="SAM8in.SYRJ" format="2">
  <outline>
    <contour>
      <point x="-450" y="823" type="line"/>
      <point x="-450" y="789" type="line"/>
      <point x="20" y="789" type="line"/>
      <point x="20" y="823" type="line"/>
    </contour>
  </outline>
</glyph>
<glyph name="SAM8xin.SYRJ" format="2">
  <outline>
    <contour>
      <point x="-450" y="823" type="line"/>
      <point x="-450" y="789" type="line"/>
      <point x="-68" y="789" type="line"/>
      <point x="-68" y="823" type="line"/>
    </contour>
  </outline>
</glyph>
<glyph name="SAM8xin.SYRN" format="2">
  <outline>
    <contour>
      <point x="-470" y="865" type="line"/>
      <point x="-68" y="865" type="line"/>
      <point x="-68" y="920" type="line"/>
      <point x="-470" y="920" type="line"/>
    </contour>
  </outline>
</glyph>
<glyph name="SAM8xin" format="2">
  <outline>
    <contour>
      <point x="-68" y="865" type="line"/>
      <point x="-68" y="900" type="line"/>
      <point x="-460" y="900" type="line"/>
      <point x="-460" y="865" type="line"/>
    </contour>
  </outline>
</glyph>
<glyph name="SAMoutLL.SYRJ" format="2">
  <outline>
    <contour>
      <point x="-192" y="823" type="line"/>
      <point x="-192" y="789" type="line"/>
      <point x="690" y="789" type="line"/>
      <point x="690" y="823" type="line"/>
    </contour>
  </outline>
</glyph>
<glyph name="bracketleft.SYRJ" format="2">
  <advance width="340"/>
  <outline>
    <contour>
      <point x="306" y="-164" type="line"/>
      <point x="306" y="-43" type="line"/>
      <point x="219" y="-43" type="line"/>
      <point x="219" y="595" type="line"/>
      <point x="306" y="595" type="line"/>
      <point x="306" y="716" type="line"/>
      <point x="68" y="716" type="line"/>
      <point x="68" y="-164" type="line"/>
    </contour>
  </outline>
</glyph>
<glyph name="bracketleft.SYRN" format="2">
  <advance width="288"/>
  <outline>
    <contour>
      <point x="20" y="-164" type="line"/>
      <point x="258" y="-164" type="line"/>
      <point x="258" y="-43" type="line"/>
      <point x="171" y="-43" type="line"/>
      <point x="171" y="595" type="line"/>
      <point x="258" y="595" type="line"/>
      <point x="258" y="716" type="line"/>
      <point x="20" y="716" type="line"/>
    </contour>
  </outline>
</glyph>
<glyph name="bracketright.SYRJ" format="2">
  <advance width="341"/>
  <outline>
    <contour>
      <point x="34" y="-43" type="line"/>
      <point x="34" y="-164" type="line"/>
      <point x="273" y="-164" type="line"/>
      <point x="273" y="716" type="line"/>
      <point x="34" y="716" type="line"/>
      <point x="34" y="595" type="line"/>
      <point x="121" y="595" type="line"/>
      <point x="121" y="-43" type="line"/>
    </contour>
  </outline>
</glyph>
<glyph name="ellipsis.SYRN" format="2">
  <advance width="917"/>
  <outline>
    <contour>
      <point x="76" y="0" type="line"/>
      <point x="247" y="0" type="line"/>
      <point x="247" y="169" type="line"/>
      <point x="76" y="169" type="line"/>
    </contour>
    <contour>
      <point x="373" y="0" type="line"/>
      <point x="544" y="0" type="line"/>
      <point x="544" y="169" type="line"/>
      <point x="373" y="169" type="line"/>
    </contour>
    <contour>
      <point x="670" y="0" type="line"/>
      <point x="841" y="0" type="line"/>
      <point x="841" y="169" type="line"/>
      <point x="670" y="169" type="line"/>
    </contour>
  </outline>
</glyph>
<glyph name="hyphen.SYRJ" format="2">
  <advance width="338"/>
  <outline>
    <contour>
      <point x="31" y="192" type="line"/>
      <point x="307" y="192" type="line"/>
      <point x="307" y="344" type="line"/>
      <point x="31" y="344" type="line"/>
    </contour>
  </outline>
</glyph>
<glyph name="minus.SYRJ" format="2">
  <advance width="578"/>
  <outline>
    <contour>
      <point x="524" y="241" type="line"/>
      <point x="524" y="366" type="line"/>
      <point x="53" y="366" type="line"/>
      <point x="53" y="241" type="line"/>
    </contour>
  </outline>
</glyph>
<glyph name="parenleft.alt.SYRN" format="2">
  <advance width="481"/>
  <outline>
    <contour>
      <point x="505" y="905" type="line"/>
      <point x="78" y="905" type="line"/>
      <point x="78" y="466" type="line"/>
      <point x="176" y="466" type="line"/>
      <point x="176" y="813" type="line"/>
      <point x="505" y="813" type="line"/>
    </contour>
  </outline>
</glyph>
<glyph name="uni0303.SYRN" format="2">
  <outline>
    <contour>
      <point x="134" y="635" type="curve"/>
      <point x="77" y="635" type="line"/>
      <point x="73" y="609"/>
      <point x="59" y="608"/>
      <point x="49" y="608" type="curve" smooth="yes"/>
      <point x="35" y="608"/>
      <point x="24" y="612"/>
      <point x="8" y="620" type="curve" smooth="yes"/>
      <point x="-12" y="630"/>
      <point x="-34" y="636"/>
      <point x="-52" y="636" type="curve" smooth="yes"/>
      <point x="-90" y="636"/>
      <point x="-130" y="615"/>
      <point x="-135" y="542" type="curve"/>
      <point x="-78" y="542" type="line"/>
      <point x="-74" y="568"/>
      <point x="-60" y="569"/>
      <point x="-50" y="569" type="curve" smooth="yes"/>
      <point x="-36" y="569"/>
      <point x="-25" y="565"/>
      <point x="-9" y="557" type="curve" smooth="yes"/>
      <point x="11" y="547"/>
      <point x="34" y="541"/>
      <point x="52" y="541" type="curve" smooth="yes"/>
      <point x="91" y="541"/>
      <point x="129" y="562"/>
    </contour>
  </outline>
</glyph>
<glyph name="uni0304.SYRJ" format="2">
  <outline>
    <contour>
      <point x="-133" y="620" type="line"/>
      <point x="-133" y="560" type="line"/>
      <point x="133" y="560" type="line"/>
      <point x="133" y="620" type="line"/>
    </contour>
  </outline>
</glyph>
<glyph name="uni0304.SYRN" format="2">
  <outline>
    <contour>
      <point x="-133" y="562" type="line"/>
      <point x="133" y="562" type="line"/>
      <point x="133" y="622" type="line"/>
      <point x="-133" y="622" type="line"/>
    </contour>
  </outline>
</glyph>
<glyph name="uni0307.SYRN" format="2">
  <outline>
    <contour>
      <point x="-70" y="551" type="line"/>
      <point x="71" y="551" type="line"/>
      <point x="71" y="690" type="line"/>
      <point x="-70" y="690" type="line"/>
    </contour>
  </outline>
</glyph>
<glyph name="uni0308.SYRN" format="2">
  <outline>
    <contour>
      <point x="-179" y="551" type="line"/>
      <point x="-38" y="551" type="line"/>
      <point x="-38" y="690" type="line"/>
      <point x="-179" y="690" type="line"/>
    </contour>
    <contour>
      <point x="38" y="551" type="line"/>
      <point x="179" y="551" type="line"/>
      <point x="179" y="690" type="line"/>
      <point x="38" y="690" type="line"/>
    </contour>
  </outline>
</glyph>
<glyph name="uni030A.SYRN" format="2">
  <outline>
    <contour>
      <point x="0" y="537" type="curve" smooth="yes"/>
      <point x="40" y="537"/>
      <point x="75" y="566"/>
      <point x="75" y="613" type="curve" smooth="yes"/>
      <point x="75" y="661"/>
      <point x="43" y="687"/>
      <point x="0" y="687" type="curve" smooth="yes"/>
      <point x="-41" y="687"/>
      <point x="-75" y="658"/>
      <point x="-75" y="611" type="curve" smooth="yes"/>
      <point x="-75" y="564"/>
      <point x="-43" y="537"/>
    </contour>
    <contour>
      <point x="0" y="572" type="curve" smooth="yes"/>
      <point x="-21" y="572"/>
      <point x="-38" y="588"/>
      <point x="-38" y="612" type="curve" smooth="yes"/>
      <point x="-38" y="638"/>
      <point x="-23" y="652"/>
      <point x="0" y="652" type="curve" smooth="yes"/>
      <point x="22" y="652"/>
      <point x="39" y="638"/>
      <point x="39" y="612" type="curve" smooth="yes"/>
      <point x="39" y="588"/>
      <point x="22" y="572"/>
    </contour>
  </outline>
</glyph>
<glyph name="uni0320.SYRJ" format="2">
  <outline>
    <contour>
      <point x="133" y="-80" type="line"/>
      <point x="133" y="-20" type="line"/>
      <point x="-133" y="-20" type="line"/>
      <point x="-133" y="-80" type="line"/>
    </contour>
  </outline>
</glyph>
<glyph name="uni0323.SYRN" format="2">
  <outline>
    <contour>
      <point x="-68" y="-143" type="line"/>
      <point x="73" y="-143" type="line"/>
      <point x="73" y="-4" type="line"/>
      <point x="-68" y="-4" type="line"/>
    </contour>
  </outline>
</glyph>
<glyph name="uni0324.SYRJ" format="2">
  <outline>
    <contour>
      <point x="-193" y="-81" type="curve" smooth="yes"/>
      <point x="-193" y="-135"/>
      <point x="-152" y="-157"/>
      <point x="-109" y="-157" type="curve" smooth="yes"/>
      <point x="-67" y="-157"/>
      <point x="-24" y="-135"/>
      <point x="-24" y="-81" type="curve" smooth="yes"/>
      <point x="-24" y="-25"/>
      <point x="-67" y="-4"/>
      <point x="-109" y="-4" type="curve" smooth="yes"/>
      <point x="-152" y="-4"/>
      <point x="-193" y="-25"/>
    </contour>
    <contour>
      <point x="23" y="-81" type="curve" smooth="yes"/>
      <point x="23" y="-135"/>
      <point x="64" y="-157"/>
      <point x="107" y="-157" type="curve" smooth="yes"/>
      <point x="149" y="-157"/>
      <point x="192" y="-135"/>
      <point x="192" y="-81" type="curve" smooth="yes"/>
      <point x="192" y="-25"/>
      <point x="149" y="-4"/>
      <point x="107" y="-4" type="curve" smooth="yes"/>
      <point x="64" y="-4"/>
      <point x="23" y="-25"/>
    </contour>
  </outline>
</glyph>
<glyph name="uni0324.SYRN" format="2">
  <outline>
    <contour>
      <point x="-179" y="-144" type="line"/>
      <point x="-38" y="-144" type="line"/>
      <point x="-38" y="-5" type="line"/>
      <point x="-179" y="-5" type="line"/>
    </contour>
    <contour>
      <point x="38" y="-144" type="line"/>
      <point x="179" y="-144" type="line"/>
      <point x="179" y="-5" type="line"/>
      <point x="38" y="-5" type="line"/>
    </contour>
  </outline>
</glyph>
<glyph name="uni032E.SYRJ" format="2">
  <outline>
    <contour>
      <point x="-1" y="-15" type="curve" smooth="yes"/>
      <point x="-47" y="-15"/>
      <point x="-65" y="12"/>
      <point x="-71" y="39" type="curve"/>
      <point x="-129" y="39" type="line"/>
      <point x="-125" y="-42"/>
      <point x="-76" y="-78"/>
      <point x="-3" y="-78" type="curve" smooth="yes"/>
      <point x="67" y="-78"/>
      <point x="125" y="-34"/>
      <point x="131" y="39" type="curve"/>
      <point x="74" y="39" type="line"/>
      <point x="68" y="8"/>
      <point x="40" y="-15"/>
    </contour>
  </outline>
</glyph>
<glyph name="uni032E.SYRN" format="2">
  <outline>
    <contour>
      <point x="131" y="29" type="curve"/>
      <point x="74" y="29" type="line"/>
      <point x="68" y="-2"/>
      <point x="40" y="-25"/>
      <point x="-1" y="-25" type="curve" smooth="yes"/>
      <point x="-47" y="-25"/>
      <point x="-65" y="2"/>
      <point x="-71" y="29" type="curve"/>
      <point x="-129" y="29" type="line"/>
      <point x="-125" y="-52"/>
      <point x="-76" y="-88"/>
      <point x="-3" y="-88" type="curve" smooth="yes"/>
      <point x="67" y="-88"/>
      <point x="125" y="-44"/>
    </contour>
  </outline>
</glyph>
<glyph name="uni0331.SYRJ" format="2">
  <outline>
    <contour>
      <point x="133" y="-80" type="line"/>
      <point x="133" y="-20" type="line"/>
      <point x="-133" y="-20" type="line"/>
      <point x="-133" y="-80" type="line"/>
    </contour>
  </outline>
</glyph>
<glyph name="uni0331.SYRN" format="2">
  <outline>
    <contour>
      <point x="-133" y="-70" type="line"/>
      <point x="133" y="-70" type="line"/>
      <point x="133" y="-10" type="line"/>
      <point x="-133" y="-10" type="line"/>
    </contour>
  </outline>
</glyph>
<glyph name="uni064B.SYRJ" format="2">
  <outline>
    <contour>
      <point x="101" y="645" type="line"/>
      <point x="-101" y="569" type="line"/>
      <point x="-100" y="531" type="line"/>
      <point x="103" y="607" type="line"/>
    </contour>
    <contour>
      <point x="95" y="728" type="line"/>
      <point x="-107" y="652" type="line"/>
      <point x="-106" y="614" type="line"/>
      <point x="97" y="690" type="line"/>
    </contour>
  </outline>
</glyph>
<glyph name="uni064E.SYRN" format="2">
  <outline>
    <contour>
      <point x="101" y="645" type="line"/>
      <point x="-101" y="569" type="line"/>
      <point x="-100" y="531" type="line"/>
      <point x="103" y="607" type="line"/>
    </contour>
  </outline>
</glyph>
<glyph name="uni0650.SYRJ" format="2">
  <outline>
    <contour>
      <point x="100" y="14" type="line"/>
      <point x="-103" y="-62" type="line"/>
      <point x="-101" y="-100" type="line"/>
      <point x="101" y="-24" type="line"/>
    </contour>
  </outline>
</glyph>
<glyph name="uni0660.SYRN" format="2">
  <advance width="586"/>
  <outline>
    <contour>
      <point x="190" y="177" type="line"/>
      <point x="397" y="177" type="line"/>
      <point x="397" y="380" type="line"/>
      <point x="190" y="380" type="line"/>
    </contour>
  </outline>
</glyph>
<glyph name="uni0661.SYRJ" format="2">
  <advance width="586"/>
  <outline>
    <contour>
      <point x="220" y="0" type="line"/>
      <point x="398" y="0" type="line"/>
      <point x="368" y="642" type="line"/>
      <point x="189" y="642" type="line"/>
    </contour>
  </outline>
</glyph>
<glyph name="uni0670.SYRJ" format="2">
  <outline>
    <contour>
      <point x="25" y="734" type="line"/>
      <point x="-25" y="734" type="line"/>
      <point x="-25" y="536" type="line"/>
      <point x="25" y="536" type="line"/>
    </contour>
  </outline>
</glyph>
<glyph name="uni0670.SYRN" format="2">
  <outline>
    <contour>
      <point x="25" y="734" type="line"/>
      <point x="-25" y="734" type="line"/>
      <point x="-25" y="536" type="line"/>
      <point x="25" y="536" type="line"/>
    </contour>
  </outline>
</glyph>
<glyph name="uni0701.SYRN" format="2">
  <advance width="323"/>
  <outline>
    <contour>
      <point x="76" y="361" type="line"/>
      <point x="247" y="361" type="line"/>
      <point x="247" y="530" type="line"/>
      <point x="76" y="530" type="line"/>
    </contour>
  </outline>
</glyph>
<glyph name="uni0702.SYRN" format="2">
  <advance width="323"/>
  <outline>
    <contour>
      <point x="76" y="-169" type="line"/>
      <point x="247" y="-169" type="line"/>
      <point x="247" y="0" type="line"/>
      <point x="76" y="0" type="line"/>
    </contour>
  </outline>
</glyph>
<glyph name="uni0703.SYRN" format="2">
  <advance width="363"/>
  <outline>
    <contour>
      <point x="96" y="500" type="line"/>
      <point x="267" y="500" type="line"/>
      <point x="267" y="669" type="line"/>
      <point x="96" y="669" type="line"/>
    </contour>
    <contour>
      <point x="96" y="202" type="line"/>
      <point x="267" y="202" type="line"/>
      <point x="267" y="371" type="line"/>
      <point x="96" y="371" type="line"/>
    </contour>
  </outline>
</glyph>
<glyph name="uni0705.SYRN" format="2">
  <advance width="623"/>
  <outline>
    <contour>
      <point x="76" y="361" type="line"/>
      <point x="247" y="361" type="line"/>
      <point x="247" y="530" type="line"/>
      <point x="76" y="530" type="line"/>
    </contour>
    <contour>
      <point x="376" y="361" type="line"/>
      <point x="547" y="361" type="line"/>
      <point x="547" y="530" type="line"/>
      <point x="376" y="530" type="line"/>
    </contour>
  </outline>
</glyph>
<glyph name="uni0707.SYRN" format="2">
  <advance width="523"/>
  <outline>
    <contour>
      <point x="276" y="298" type="line"/>
      <point x="447" y="298" type="line"/>
      <point x="447" y="467" type="line"/>
      <point x="276" y="467" type="line"/>
    </contour>
    <contour>
      <point x="76" y="0" type="line"/>
      <point x="247" y="0" type="line"/>
      <point x="247" y="169" type="line"/>
      <point x="76" y="169" type="line"/>
    </contour>
  </outline>
</glyph>
<glyph name="uni070B.SYRJ" format="2">
  <advance width="983"/>
  <outline>
    <contour>
      <point x="110" y="743" type="line"/>
      <point x="110" y="617" type="line"/>
      <point x="873" y="617" type="line"/>
      <point x="873" y="743" type="line"/>
    </contour>
    <contour>
      <point x="398" y="448" type="curve" smooth="yes"/>
      <point x="398" y="388"/>
      <point x="443" y="364"/>
      <point x="491" y="364" type="curve" smooth="yes"/>
      <point x="538" y="364"/>
      <point x="585" y="388"/>
      <point x="585" y="448" type="curve" smooth="yes"/>
      <point x="585" y="510"/>
      <point x="538" y="533"/>
      <point x="491" y="533" type="curve" smooth="yes"/>
      <point x="443" y="533"/>
      <point x="398" y="510"/>
    </contour>
  </outline>
</glyph>
<glyph name="uni070B.SYRN" format="2">
  <advance width="975"/>
  <outline>
    <contour>
      <point x="110" y="617" type="line"/>
      <point x="873" y="617" type="line"/>
      <point x="873" y="743" type="line"/>
      <point x="110" y="743" type="line"/>
    </contour>
    <contour>
      <point x="408" y="363" type="line"/>
      <point x="575" y="363" type="line"/>
      <point x="575" y="528" type="line"/>
      <point x="408" y="528" type="line"/>
    </contour>
  </outline>
</glyph>
<glyph name="uni070F.SYRJ" format="2">
  <outline>
    <contour>
      <point x="-35" y="-90" type="line"/>
      <point x="34" y="-90" type="line"/>
      <point x="34" y="767" type="line"/>
      <point x="101" y="767" type="line"/>
      <point x="101" y="833" type="line"/>
      <point x="-102" y="833" type="line"/>
      <point x="-102" y="767" type="line"/>
      <point x="-35" y="767" type="line"/>
    </contour>
  </outline>
</glyph>
<glyph name="uni070F.SYRN" format="2">
  <outline>
    <contour>
      <point x="-35" y="-90" type="line"/>
      <point x="34" y="-90" type="line"/>
      <point x="34" y="747" type="line"/>
      <point x="101" y="747" type="line"/>
      <point x="101" y="813" type="line"/>
      <point x="-102" y="813" type="line"/>
      <point x="-102" y="747" type="line"/>
      <point x="-35" y="747" type="line"/>
    </contour>
  </outline>
</glyph>
<glyph name="uni0710.Fina3.SYRJ" format="2">
  <advance width="321"/>
  <outline>
    <contour>
      <point x="241" y="684" type="line"/>
      <point x="87" y="684" type="line"/>
      <point x="87" y="207" type="line" smooth="yes"/>
      <point x="87" y="91"/>
      <point x="68" y="-4"/>
      <point x="44" y="-60" type="curve"/>
      <point x="174" y="-116" type="line"/>
      <point x="229" y="-34"/>
      <point x="241" y="111"/>
      <point x="241" y="175" type="curve" smooth="yes"/>
    </contour>
  </outline>
</glyph>
<glyph name="uni0710.Medi2slant.SYRJ" format="2">
  <advance width="313"/>
  <outline>
    <contour>
      <point x="313" y="0" type="curve"/>
      <point x="313" y="185" type="line"/>
      <point x="273" y="185"/>
      <point x="245" y="200"/>
      <point x="208" y="243" type="curve" smooth="yes"/>
      <point x="-231" y="744" type="line"/>
      <point x="-352" y="642" type="line"/>
      <point x="124" y="96" type="line" smooth="yes"/>
      <point x="179" y="33"/>
      <point x="251" y="0"/>
    </contour>
  </outline>
</glyph>
<glyph name="uni0710.slant.SYRJ" format="2">
  <advance width="376"/>
  <outline>
    <contour>
      <point x="215" y="-7" type="line"/>
      <point x="340" y="91" type="line"/>
      <point x="-232" y="744" type="line"/>
      <point x="-357" y="642" type="line"/>
    </contour>
  </outline>
</glyph>
<glyph name="uni0712.SYRN" format="2">
  <advance width="831"/>
  <outline>
    <contour>
      <point x="307" y="0" type="curve" smooth="yes"/>
      <point x="694" y="0" type="line"/>
      <point x="775" y="126" type="line"/>
      <point x="775" y="500" type="line"/>
      <point x="530" y="500" type="line" smooth="yes"/>
      <point x="432" y="500"/>
      <point x="335" y="507"/>
      <point x="311" y="512" type="curve"/>
      <point x="311" y="343" type="line"/>
      <point x="340" y="333"/>
      <point x="434" y="325"/>
      <point x="537" y="325" type="curve" smooth="yes"/>
      <point x="614" y="325" type="line"/>
      <point x="614" y="185" type="line"/>
      <point x="320" y="185" type="line" smooth="yes"/>
      <point x="245" y="185"/>
      <point x="177" y="188"/>
      <point x="132" y="247" type="curve"/>
      <point x="37" y="130" type="line"/>
      <point x="61" y="45"/>
      <point x="163" y="0"/>
    </contour>
  </outline>
</glyph>
<glyph name="uni071D.SYRN" format="2">
  <advance width="665"/>
  <outline>
    <contour>
      <point x="615" y="186" type="line"/>
      <point x="517" y="318" type="line"/>
      <point x="454" y="315" type="line"/>
      <point x="392" y="191" type="line"/>
      <point x="370" y="185"/>
      <point x="343" y="185"/>
      <point x="321" y="185" type="curve" smooth="yes"/>
      <point x="317" y="185" type="line" smooth="yes"/>
      <point x="242" y="185"/>
      <point x="182" y="189"/>
      <point x="132" y="247" type="curve"/>
      <point x="37" y="130" type="line"/>
      <point x="61" y="45"/>
      <point x="156" y="0"/>
      <point x="300" y="0" type="curve" smooth="yes"/>
      <point x="322" y="0" type="line" smooth="yes"/>
      <point x="362" y="0"/>
      <point x="430" y="5"/>
      <point x="458" y="19" type="curve"/>
      <point x="495" y="84" type="line"/>
      <point x="499" y="84" type="line"/>
      <point x="508" y="71" type="line" smooth="yes"/>
      <point x="547" y="16"/>
      <point x="583" y="0"/>
      <point x="605" y="0" type="curve" smooth="yes"/>
      <point x="615" y="0" type="line"/>
    </contour>
  </outline>
</glyph>
<glyph name="uni0720.Init.SYRJ" format="2">
  <advance width="655"/>
  <outline>
    <contour>
      <point x="619" y="91" type="line"/>
      <point x="47" y="744" type="line"/>
      <point x="-78" y="642" type="line"/>
      <point x="311" y="200" type="line"/>
      <point x="304" y="192"/>
      <point x="260" y="185"/>
      <point x="216" y="185" type="curve" smooth="yes"/>
      <point x="0" y="185" type="line" smooth="yes"/>
      <point x="-24" y="185"/>
      <point x="-40" y="141"/>
      <point x="-40" y="92" type="curve" smooth="yes"/>
      <point x="-40" y="42"/>
      <point x="-24" y="0"/>
      <point x="0" y="0" type="curve" smooth="yes"/>
      <point x="212" y="0" type="line" smooth="yes"/>
      <point x="303" y="0"/>
      <point x="374" y="18"/>
      <point x="423" y="68" type="curve"/>
      <point x="494" y="-7" type="line"/>
    </contour>
  </outline>
</glyph>
<glyph name="uni0720.InitN.SYRN" format="2">
  <advance width="398"/>
  <outline>
    <contour>
      <point x="0" y="0" type="curve" smooth="yes"/>
      <point x="268" y="0" type="line"/>
      <point x="358" y="144" type="line"/>
      <point x="50" y="743" type="line"/>
      <point x="-105" y="661" type="line"/>
      <point x="139" y="185" type="line"/>
      <point x="0" y="185" type="line" smooth="yes"/>
      <point x="-24" y="185"/>
      <point x="-40" y="141"/>
      <point x="-40" y="92" type="curve" smooth="yes"/>
      <point x="-40" y="42"/>
      <point x="-24" y="0"/>
    </contour>
  </outline>
</glyph>
<glyph name="uni0720.MediB" format="2">
  <advance width="549"/>
  <outline>
    <contour>
      <point x="549" y="0" type="line"/>
      <point x="549" y="185" type="line"/>
      <point x="470" y="185" type="line"/>
      <point x="425" y="341"/>
      <point x="331" y="634"/>
      <point x="265" y="803" type="curve"/>
      <point x="84" y="743" type="line"/>
      <point x="134" y="622"/>
      <point x="242" y="334"/>
      <point x="296" y="185" type="curve"/>
      <point x="0" y="185" type="line" smooth="yes"/>
      <point x="-24" y="185"/>
      <point x="-40" y="141"/>
      <point x="-40" y="92" type="curve" smooth="yes"/>
      <point x="-40" y="42"/>
      <point x="-24" y="0"/>
      <point x="0" y="0" type="curve" smooth="yes"/>
    </contour>
  </outline>
</glyph>
<glyph name="uni0722.Init" format="2">
  <advance width="346"/>
  <outline>
    <contour>
      <point x="278" y="179" type="curve" smooth="yes"/>
      <point x="278" y="258"/>
      <point x="263" y="372"/>
      <point x="235" y="507" type="curve"/>
      <point x="67" y="479" type="line"/>
      <point x="92" y="364"/>
      <point x="117" y="240"/>
      <point x="125" y="189" type="curve"/>
      <point x="118" y="187"/>
      <point x="90" y="185"/>
      <point x="51" y="185" type="curve" smooth="yes"/>
      <point x="0" y="185" type="line" smooth="yes"/>
      <point x="-24" y="185"/>
      <point x="-40" y="141"/>
      <point x="-40" y="92" type="curve" smooth="yes"/>
      <point x="-40" y="42"/>
      <point x="-24" y="0"/>
      <point x="0" y="0" type="curve" smooth="yes"/>
      <point x="48" y="0" type="line" smooth="yes"/>
      <point x="99" y="0"/>
      <point x="143" y="3"/>
      <point x="173" y="14" type="curve" smooth="yes"/>
      <point x="241" y="38"/>
      <point x="278" y="87"/>
    </contour>
  </outline>
</glyph>
<glyph name="uni0722.InitB" format="2">
  <advance width="398"/>
  <outline>
    <contour>
      <point x="331" y="179" type="curve" smooth="yes"/>
      <point x="331" y="258"/>
      <point x="316" y="372"/>
      <point x="288" y="507" type="curve"/>
      <point x="120" y="479" type="line"/>
      <point x="145" y="364"/>
      <point x="170" y="240"/>
      <point x="178" y="189" type="curve"/>
      <point x="171" y="187"/>
      <point x="143" y="185"/>
      <point x="104" y="185" type="curve" smooth="yes"/>
      <point x="0" y="185" type="line" smooth="yes"/>
      <point x="-24" y="185"/>
      <point x="-40" y="141"/>
      <point x="-40" y="92" type="curve" smooth="yes"/>
      <point x="-40" y="42"/>
      <point x="-24" y="0"/>
      <point x="0" y="0" type="curve" smooth="yes"/>
      <point x="101" y="0" type="line" smooth="yes"/>
      <point x="152" y="0"/>
      <point x="196" y="3"/>
      <point x="226" y="14" type="curve" smooth="yes"/>
      <point x="294" y="38"/>
      <point x="331" y="87"/>
    </contour>
  </outline>
</glyph>
<glyph name="uni072C.MediLiga2.SYRN" format="2">
  <advance width="330"/>
  <outline>
    <contour>
      <point x="325" y="0" type="curve" smooth="yes"/>
      <point x="330" y="0" type="line"/>
      <point x="330" y="185" type="line"/>
      <point x="303" y="185"/>
      <point x="287" y="204"/>
      <point x="216" y="303" type="curve" smooth="yes"/>
      <point x="154" y="389" type="line"/>
      <point x="32" y="293" type="line"/>
      <point x="107" y="184" type="line"/>
      <point x="5" y="87" type="line"/>
      <point x="-189" y="343" type="line"/>
      <point x="-247" y="154" type="line"/>
      <point x="-66" y="-89" type="line"/>
      <point x="49" y="-89" type="line"/>
      <point x="201" y="67" type="line"/>
      <point x="209" y="58" type="line" smooth="yes"/>
      <point x="227" y="38"/>
      <point x="273" y="0"/>
    </contour>
  </outline>
</glyph>
<glyph name="uni0730.SYRN" format="2">
  <outline>
    <contour>
      <point x="-90" y="526" type="line"/>
      <point x="108" y="707" type="line"/>
      <point x="82" y="734" type="line"/>
      <point x="50" y="706" type="line"/>
      <point x="-79" y="739" type="line"/>
      <point x="-104" y="712" type="line"/>
      <point x="-83" y="585" type="line"/>
      <point x="-115" y="554" type="line"/>
    </contour>
    <contour>
      <point x="-63" y="695" type="line"/>
      <point x="16" y="674" type="line"/>
      <point x="-48" y="614" type="line"/>
    </contour>
  </outline>
</glyph>
<glyph name="uni0731.SYRJ" format="2">
  <outline>
    <contour>
      <point x="89" y="10" type="line"/>
      <point x="-109" y="-171" type="line"/>
      <point x="-83" y="-198" type="line"/>
      <point x="-51" y="-170" type="line"/>
      <point x="78" y="-203" type="line"/>
      <point x="103" y="-176" type="line"/>
      <point x="82" y="-49" type="line"/>
      <point x="114" y="-18" type="line"/>
    </contour>
    <contour>
      <point x="62" y="-159" type="line"/>
      <point x="-17" y="-138" type="line"/>
      <point x="47" y="-78" type="line"/>
    </contour>
  </outline>
</glyph>
<glyph name="uni0731.SYRN" format="2">
  <outline>
    <contour>
      <point x="89" y="15" type="line"/>
      <point x="-109" y="-166" type="line"/>
      <point x="-83" y="-193" type="line"/>
      <point x="-51" y="-165" type="line"/>
      <point x="78" y="-198" type="line"/>
      <point x="103" y="-171" type="line"/>
      <point x="82" y="-44" type="line"/>
      <point x="114" y="-13" type="line"/>
    </contour>
    <contour>
      <point x="62" y="-154" type="line"/>
      <point x="-17" y="-133" type="line"/>
      <point x="47" y="-73" type="line"/>
    </contour>
  </outline>
</glyph>
<glyph name="uni0732.SYRN" format="2">
  <outline>
    <contour>
      <point x="17" y="671" type="line"/>
      <point x="-31" y="556" type="line"/>
      <point x="6" y="541" type="line"/>
      <point x="54" y="655" type="line"/>
    </contour>
    <contour>
      <point x="-4" y="0" type="line"/>
      <point x="-52" y="-115" type="line"/>
      <point x="-15" y="-130" type="line"/>
      <point x="33" y="-16" type="line"/>
    </contour>
  </outline>
</glyph>
<glyph name="uni0732.above.SYRJ" format="2">
  <outline>
    <contour>
      <point x="11" y="559" type="curve" smooth="yes"/>
      <point x="44" y="637" type="line" smooth="yes"/>
      <point x="46" y="642"/>
      <point x="47" y="647"/>
      <point x="47" y="651" type="curve" smooth="yes"/>
      <point x="47" y="662"/>
      <point x="36" y="669"/>
      <point x="27" y="669" type="curve" smooth="yes"/>
      <point x="18" y="669"/>
      <point x="11" y="664"/>
      <point x="8" y="656" type="curve" smooth="yes"/>
      <point x="-25" y="578" type="line" smooth="yes"/>
      <point x="-27" y="573"/>
      <point x="-28" y="568"/>
      <point x="-28" y="564" type="curve" smooth="yes"/>
      <point x="-28" y="553"/>
      <point x="-17" y="546"/>
      <point x="-8" y="546" type="curve" smooth="yes"/>
      <point x="1" y="546"/>
      <point x="8" y="551"/>
    </contour>
  </outline>
</glyph>
<glyph name="uni0732.above.SYRN" format="2">
  <outline>
    <contour>
      <point x="16" y="706" type="line"/>
      <point x="-32" y="591" type="line"/>
      <point x="5" y="576" type="line"/>
      <point x="53" y="690" type="line"/>
    </contour>
  </outline>
</glyph>
<glyph name="uni0732.below.SYRN" format="2">
  <outline>
    <contour>
      <point x="-5" y="6" type="line"/>
      <point x="-53" y="-109" type="line"/>
      <point x="-16" y="-124" type="line"/>
      <point x="32" y="-10" type="line"/>
    </contour>
  </outline>
</glyph>
<glyph name="uni0735.SYRN" format="2">
  <outline>
    <contour>
      <point x="9" y="768" type="line"/>
      <point x="-68" y="670" type="line"/>
      <point x="-38" y="648" type="line"/>
      <point x="39" y="745" type="line"/>
    </contour>
    <contour>
      <point x="32" y="662" type="line"/>
      <point x="-45" y="564" type="line"/>
      <point x="-15" y="542" type="line"/>
      <point x="62" y="639" type="line"/>
    </contour>
  </outline>
</glyph>
<glyph name="uni0735.alt.SYRN" format="2">
  <outline>
    <contour>
      <point x="145" y="646" type="line"/>
      <point x="47" y="568" type="line"/>
      <point x="75" y="537" type="line"/>
      <point x="172" y="614" type="line"/>
    </contour>
    <contour>
      <point x="99" y="733" type="line"/>
      <point x="1" y="655" type="line"/>
      <point x="29" y="624" type="line"/>
      <point x="126" y="701" type="line"/>
    </contour>
  </outline>
</glyph>
<glyph name="uni0735.altB.SYRN" format="2">
  <outline>
    <contour>
      <point x="113" y="833" type="line"/>
      <point x="15" y="755" type="line"/>
      <point x="43" y="724" type="line"/>
      <point x="140" y="801" type="line"/>
    </contour>
    <contour>
      <point x="67" y="920" type="line"/>
      <point x="-31" y="842" type="line"/>
      <point x="-3" y="811" type="line"/>
      <point x="94" y="888" type="line"/>
    </contour>
  </outline>
</glyph>
<glyph name="uni0735.altC.SYRN" format="2">
  <outline>
    <contour>
      <point x="138" y="650" type="line"/>
      <point x="44" y="568" type="line"/>
      <point x="73" y="538" type="line"/>
      <point x="165" y="620" type="line"/>
    </contour>
    <contour>
      <point x="79" y="732" type="line"/>
      <point x="-15" y="649" type="line"/>
      <point x="14" y="619" type="line"/>
      <point x="108" y="701" type="line"/>
    </contour>
  </outline>
</glyph>
<glyph name="uni0738.SYRN" format="2">
  <outline>
    <contour>
      <point x="-51" y="-3" type="line"/>
      <point x="-99" y="-118" type="line"/>
      <point x="-62" y="-133" type="line"/>
      <point x="-14" y="-19" type="line"/>
    </contour>
    <contour>
      <point x="57" y="-3" type="line"/>
      <point x="9" y="-118" type="line"/>
      <point x="46" y="-133" type="line"/>
      <point x="94" y="-19" type="line"/>
    </contour>
  </outline>
</glyph>
<glyph name="uni0739.SYRN" format="2">
  <outline>
    <contour>
      <point x="-54" y="-44" type="line"/>
      <point x="-102" y="-159" type="line"/>
      <point x="-65" y="-174" type="line"/>
      <point x="-17" y="-60" type="line"/>
    </contour>
    <contour>
      <point x="59" y="1" type="line"/>
      <point x="11" y="-114" type="line"/>
      <point x="48" y="-129" type="line"/>
      <point x="96" y="-15" type="line"/>
    </contour>
  </outline>
</glyph>
<glyph name="uni073A.SYRN" format="2">
  <outline>
    <contour>
      <point x="-44" y="530" type="line"/>
      <point x="121" y="673" type="line"/>
      <point x="96" y="699" type="line"/>
      <point x="29" y="642" type="line"/>
      <point x="-5" y="680" type="line"/>
      <point x="63" y="740" type="line"/>
      <point x="37" y="767" type="line"/>
      <point x="-128" y="624" type="line"/>
      <point x="-102" y="597" type="line"/>
      <point x="-35" y="655" type="line"/>
      <point x="0" y="617" type="line"/>
      <point x="-69" y="557" type="line"/>
    </contour>
  </outline>
</glyph>
<glyph name="uni073B.SYRJ" format="2">
  <outline>
    <contour>
      <point x="-96" y="-161" type="line"/>
      <point x="-29" y="-104" type="line"/>
      <point x="5" y="-142" type="line"/>
      <point x="-63" y="-202" type="line"/>
      <point x="-37" y="-229" type="line"/>
      <point x="128" y="-86" type="line"/>
      <point x="102" y="-59" type="line"/>
      <point x="35" y="-117" type="line"/>
      <point x="0" y="-79" type="line"/>
      <point x="69" y="-19" type="line"/>
      <point x="44" y="8" type="line"/>
      <point x="-121" y="-135" type="line"/>
    </contour>
  </outline>
</glyph>
<glyph name="uni073B.SYRN" format="2">
  <outline>
    <contour>
      <point x="-37" y="-224" type="line"/>
      <point x="128" y="-81" type="line"/>
      <point x="102" y="-54" type="line"/>
      <point x="35" y="-112" type="line"/>
      <point x="0" y="-74" type="line"/>
      <point x="69" y="-14" type="line"/>
      <point x="44" y="13" type="line"/>
      <point x="-121" y="-130" type="line"/>
      <point x="-96" y="-156" type="line"/>
      <point x="-29" y="-99" type="line"/>
      <point x="5" y="-137" type="line"/>
      <point x="-63" y="-197" type="line"/>
    </contour>
  </outline>
</glyph>
<glyph name="uni073C.SYRJ" format="2">
  <outline>
    <contour>
      <point x="1" y="-113" type="curve" smooth="yes"/>
      <point x="34" y="-35" type="line" smooth="yes"/>
      <point x="36" y="-30"/>
      <point x="37" y="-25"/>
      <point x="37" y="-21" type="curve" smooth="yes"/>
      <point x="37" y="-10"/>
      <point x="26" y="-3"/>
      <point x="17" y="-3" type="curve" smooth="yes"/>
      <point x="8" y="-3"/>
      <point x="1" y="-8"/>
      <point x="-2" y="-16" type="curve" smooth="yes"/>
      <point x="-35" y="-94" type="line" smooth="yes"/>
      <point x="-37" y="-99"/>
      <point x="-38" y="-104"/>
      <point x="-38" y="-108" type="curve" smooth="yes"/>
      <point x="-38" y="-119"/>
      <point x="-27" y="-126"/>
      <point x="-18" y="-126" type="curve" smooth="yes"/>
      <point x="-9" y="-126"/>
      <point x="-2" y="-121"/>
    </contour>
  </outline>
</glyph>
<glyph name="uni073C.SYRN" format="2">
  <outline>
    <contour>
      <point x="5" y="-12" type="line"/>
      <point x="-43" y="-127" type="line"/>
      <point x="-6" y="-142" type="line"/>
      <point x="42" y="-28" type="line"/>
    </contour>
  </outline>
</glyph>
<glyph name="uni073D.SYRN" format="2">
  <outline>
    <contour>
      <point x="-2" y="660" type="line"/>
      <point x="85" y="564" type="line"/>
      <point x="114" y="593" type="line"/>
      <point x="24" y="689" type="line"/>
      <point x="77" y="749" type="line"/>
      <point x="46" y="772" type="line"/>
      <point x="-114" y="592" type="line"/>
      <point x="-85" y="567" type="line"/>
    </contour>
    <contour>
      <point x="-26" y="549" type="line"/>
      <point x="23" y="549" type="line"/>
      <point x="23" y="603" type="line"/>
      <point x="-26" y="603" type="line"/>
    </contour>
  </outline>
</glyph>
<glyph name="uni073E.SYRJ" format="2">
  <outline>
    <contour>
      <point x="-114" y="-53" type="line"/>
      <point x="-24" y="-149" type="line"/>
      <point x="-77" y="-209" type="line"/>
      <point x="-46" y="-232" type="line"/>
      <point x="114" y="-52" type="line"/>
      <point x="85" y="-27" type="line"/>
      <point x="2" y="-120" type="line"/>
      <point x="-85" y="-24" type="line"/>
    </contour>
    <contour>
      <point x="34" y="-27" type="curve" smooth="yes"/>
      <point x="34" y="-1"/>
      <point x="21" y="10"/>
      <point x="1" y="10" type="curve" smooth="yes"/>
      <point x="-16" y="10"/>
      <point x="-32" y="-1"/>
      <point x="-32" y="-27" type="curve" smooth="yes"/>
      <point x="-32" y="-52"/>
      <point x="-16" y="-63"/>
      <point x="1" y="-63" type="curve" smooth="yes"/>
      <point x="21" y="-63"/>
      <point x="34" y="-52"/>
    </contour>
  </outline>
</glyph>
<glyph name="uni073E.SYRN" format="2">
  <outline>
    <contour>
      <point x="-77" y="-208" type="line"/>
      <point x="-46" y="-231" type="line"/>
      <point x="114" y="-51" type="line"/>
      <point x="85" y="-26" type="line"/>
      <point x="2" y="-119" type="line"/>
      <point x="-85" y="-23" type="line"/>
      <point x="-114" y="-52" type="line"/>
      <point x="-24" y="-148" type="line"/>
    </contour>
    <contour>
      <point x="-23" y="-62" type="line"/>
      <point x="26" y="-62" type="line"/>
      <point x="26" y="-8" type="line"/>
      <point x="-23" y="-8" type="line"/>
    </contour>
  </outline>
</glyph>
<glyph name="uni073F.SYRN" format="2">
  <outline>
    <contour>
      <point x="4" y="671" type="line"/>
      <point x="-44" y="556" type="line"/>
      <point x="-7" y="541" type="line"/>
      <point x="41" y="655" type="line"/>
    </contour>
  </outline>
</glyph>
<glyph name="uni0741.SYRJ" format="2">
  <outline>
    <contour>
      <point x="-83" y="606" type="curve" smooth="yes"/>
      <point x="-83" y="569"/>
      <point x="-53" y="553"/>
      <point x="-24" y="553" type="curve" smooth="yes"/>
      <point x="6" y="553"/>
      <point x="36" y="569"/>
      <point x="36" y="606" type="curve" smooth="yes"/>
      <point x="36" y="646"/>
      <point x="6" y="660"/>
      <point x="-24" y="660" type="curve" smooth="yes"/>
      <point x="-53" y="660"/>
      <point x="-83" y="646"/>
    </contour>
  </outline>
</glyph>
<glyph name="uni0741.alt.SYRN" format="2">
  <outline>
    <contour>
      <point x="-20" y="559" type="curve" smooth="yes"/>
      <point x="7" y="559"/>
      <point x="34" y="574"/>
      <point x="34" y="607" type="curve" smooth="yes"/>
      <point x="34" y="643"/>
      <point x="7" y="656"/>
      <point x="-20" y="656" type="curve" smooth="yes"/>
      <point x="-46" y="656"/>
      <point x="-73" y="643"/>
      <point x="-73" y="607" type="curve" smooth="yes"/>
      <point x="-73" y="574"/>
      <point x="-46" y="559"/>
    </contour>
  </outline>
</glyph>
<glyph name="uni0742.SYRJ" format="2">
  <outline>
    <contour>
      <point x="-59" y="-74" type="curve" smooth="yes"/>
      <point x="-59" y="-111"/>
      <point x="-29" y="-127"/>
      <point x="0" y="-127" type="curve" smooth="yes"/>
      <point x="30" y="-127"/>
      <point x="60" y="-111"/>
      <point x="60" y="-74" type="curve" smooth="yes"/>
      <point x="60" y="-34"/>
      <point x="30" y="-20"/>
      <point x="0" y="-20" type="curve" smooth="yes"/>
      <point x="-29" y="-20"/>
      <point x="-59" y="-34"/>
    </contour>
  </outline>
</glyph>
<glyph name="uni0742.SYRN" format="2">
  <outline>
    <contour>
      <point x="-16" y="-118" type="curve" smooth="yes"/>
      <point x="14" y="-118"/>
      <point x="44" y="-102"/>
      <point x="44" y="-65" type="curve" smooth="yes"/>
      <point x="44" y="-25"/>
      <point x="14" y="-11"/>
      <point x="-16" y="-11" type="curve" smooth="yes"/>
      <point x="-45" y="-11"/>
      <point x="-75" y="-25"/>
      <point x="-75" y="-65" type="curve" smooth="yes"/>
      <point x="-75" y="-102"/>
      <point x="-45" y="-118"/>
    </contour>
  </outline>
</glyph>
<glyph name="uni0742.alt.SYRN" format="2">
  <outline>
    <contour>
      <point x="-16" y="-113" type="curve" smooth="yes"/>
      <point x="11" y="-113"/>
      <point x="38" y="-98"/>
      <point x="38" y="-65" type="curve" smooth="yes"/>
      <point x="38" y="-29"/>
      <point x="11" y="-16"/>
      <point x="-16" y="-16" type="curve" smooth="yes"/>
      <point x="-42" y="-16"/>
      <point x="-69" y="-29"/>
      <point x="-69" y="-65" type="curve" smooth="yes"/>
      <point x="-69" y="-98"/>
      <point x="-42" y="-113"/>
    </contour>
  </outline>
</glyph>
<glyph name="uni0743.SYRJ" format="2">
  <outline>
    <contour>
      <point x="-69" y="604" type="curve" smooth="yes"/>
      <point x="-69" y="560"/>
      <point x="-35" y="542"/>
      <point x="0" y="542" type="curve" smooth="yes"/>
      <point x="35" y="542"/>
      <point x="70" y="560"/>
      <point x="70" y="604" type="curve" smooth="yes"/>
      <point x="70" y="650"/>
      <point x="35" y="667"/>
      <point x="0" y="667" type="curve" smooth="yes"/>
      <point x="-35" y="667"/>
      <point x="-69" y="650"/>
    </contour>
    <contour>
      <point x="-69" y="764" type="curve" smooth="yes"/>
      <point x="-69" y="720"/>
      <point x="-35" y="702"/>
      <point x="0" y="702" type="curve" smooth="yes"/>
      <point x="35" y="702"/>
      <point x="70" y="720"/>
      <point x="70" y="764" type="curve" smooth="yes"/>
      <point x="70" y="810"/>
      <point x="35" y="827"/>
      <point x="0" y="827" type="curve" smooth="yes"/>
      <point x="-35" y="827"/>
      <point x="-69" y="810"/>
    </contour>
  </outline>
</glyph>
<glyph name="uni0743.SYRN" format="2">
  <outline>
    <contour>
      <point x="-54" y="540" type="line"/>
      <point x="54" y="540" type="line"/>
      <point x="54" y="646" type="line"/>
      <point x="-54" y="646" type="line"/>
    </contour>
    <contour>
      <point x="-54" y="706" type="line"/>
      <point x="54" y="706" type="line"/>
      <point x="54" y="812" type="line"/>
      <point x="-54" y="812" type="line"/>
    </contour>
  </outline>
</glyph>
<glyph name="uni0744.SYRN" format="2">
  <outline>
    <contour>
      <point x="-54" y="-268" type="line"/>
      <point x="54" y="-268" type="line"/>
      <point x="54" y="-162" type="line"/>
      <point x="-54" y="-162" type="line"/>
    </contour>
    <contour>
      <point x="-54" y="-102" type="line"/>
      <point x="54" y="-102" type="line"/>
      <point x="54" y="4" type="line"/>
      <point x="-54" y="4" type="line"/>
    </contour>
  </outline>
</glyph>
<glyph name="uni0745.SYRN" format="2">
  <outline>
    <contour>
      <point x="30" y="540" type="line"/>
      <point x="138" y="540" type="line"/>
      <point x="138" y="646" type="line"/>
      <point x="30" y="646" type="line"/>
    </contour>
    <contour>
      <point x="-54" y="688" type="line"/>
      <point x="54" y="688" type="line"/>
      <point x="54" y="794" type="line"/>
      <point x="-54" y="794" type="line"/>
    </contour>
    <contour>
      <point x="-138" y="540" type="line"/>
      <point x="-30" y="540" type="line"/>
      <point x="-30" y="646" type="line"/>
      <point x="-138" y="646" type="line"/>
    </contour>
  </outline>
</glyph>
<glyph name="uni0746.SYRJ" format="2">
  <outline>
    <contour>
      <point x="21" y="-68" type="curve" smooth="yes"/>
      <point x="21" y="-112"/>
      <point x="55" y="-130"/>
      <point x="90" y="-130" type="curve" smooth="yes"/>
      <point x="125" y="-130"/>
      <point x="160" y="-112"/>
      <point x="160" y="-68" type="curve" smooth="yes"/>
      <point x="160" y="-22"/>
      <point x="125" y="-5"/>
      <point x="90" y="-5" type="curve" smooth="yes"/>
      <point x="55" y="-5"/>
      <point x="21" y="-22"/>
    </contour>
    <contour>
      <point x="-70" y="-211" type="curve" smooth="yes"/>
      <point x="-70" y="-255"/>
      <point x="-36" y="-273"/>
      <point x="-1" y="-273" type="curve" smooth="yes"/>
      <point x="34" y="-273"/>
      <point x="69" y="-255"/>
      <point x="69" y="-211" type="curve" smooth="yes"/>
      <point x="69" y="-165"/>
      <point x="34" y="-148"/>
      <point x="-1" y="-148" type="curve" smooth="yes"/>
      <point x="-36" y="-148"/>
      <point x="-70" y="-165"/>
    </contour>
    <contour>
      <point x="-160" y="-68" type="curve" smooth="yes"/>
      <point x="-160" y="-112"/>
      <point x="-126" y="-130"/>
      <point x="-91" y="-130" type="curve" smooth="yes"/>
      <point x="-56" y="-130"/>
      <point x="-21" y="-112"/>
      <point x="-21" y="-68" type="curve" smooth="yes"/>
      <point x="-21" y="-22"/>
      <point x="-56" y="-5"/>
      <point x="-91" y="-5" type="curve" smooth="yes"/>
      <point x="-126" y="-5"/>
      <point x="-160" y="-22"/>
    </contour>
  </outline>
</glyph>
<glyph name="uni0746.SYRN" format="2">
  <outline>
    <contour>
      <point x="30" y="-102" type="line"/>
      <point x="138" y="-102" type="line"/>
      <point x="138" y="4" type="line"/>
      <point x="30" y="4" type="line"/>
    </contour>
    <contour>
      <point x="-54" y="-250" type="line"/>
      <point x="54" y="-250" type="line"/>
      <point x="54" y="-144" type="line"/>
      <point x="-54" y="-144" type="line"/>
    </contour>
    <contour>
      <point x="-138" y="-102" type="line"/>
      <point x="-30" y="-102" type="line"/>
      <point x="-30" y="4" type="line"/>
      <point x="-138" y="4" type="line"/>
    </contour>
  </outline>
</glyph>
<glyph name="uni0747.SYRJ" format="2">
  <outline>
    <contour>
      <point x="63" y="720" type="line"/>
      <point x="-124" y="565" type="line"/>
      <point x="-84" y="524" type="line"/>
      <point x="102" y="679" type="line"/>
    </contour>
  </outline>
</glyph>
<glyph name="uni0748.SYRN" format="2">
  <outline>
    <contour>
      <point x="-123" y="-23" type="line"/>
      <point x="63" y="-178" type="line"/>
      <point x="103" y="-137" type="line"/>
      <point x="-84" y="18" type="line"/>
    </contour>
  </outline>
</glyph>
<glyph name="uni074A.SYRN" format="2">
  <outline>
    <contour>
      <point x="-27" y="537" type="line"/>
      <point x="25" y="537" type="line"/>
      <point x="25" y="650" type="line"/>
      <point x="134" y="650" type="line"/>
      <point x="134" y="703" type="line"/>
      <point x="25" y="703" type="line"/>
      <point x="25" y="816" type="line"/>
      <point x="-27" y="816" type="line"/>
      <point x="-27" y="703" type="line"/>
      <point x="-137" y="703" type="line"/>
      <point x="-137" y="650" type="line"/>
      <point x="-27" y="650" type="line"/>
    </contour>
    <contour>
      <point x="-116" y="735" type="line"/>
      <point x="-64" y="735" type="line"/>
      <point x="-64" y="790" type="line"/>
      <point x="-116" y="790" type="line"/>
    </contour>
    <contour>
      <point x="62" y="735" type="line"/>
      <point x="114" y="735" type="line"/>
      <point x="114" y="790" type="line"/>
      <point x="62" y="790" type="line"/>
    </contour>
    <contour>
      <point x="-116" y="563" type="line"/>
      <point x="-64" y="563" type="line"/>
      <point x="-64" y="618" type="line"/>
      <point x="-116" y="618" type="line"/>
    </contour>
    <contour>
      <point x="62" y="563" type="line"/>
      <point x="114" y="563" type="line"/>
      <point x="114" y="618" type="line"/>
      <point x="62" y="618" type="line"/>
    </contour>
  </outline>
</glyph>
